<svg width="130" height="131" viewBox="0 0 130 131" fill="none" xmlns="http://www.w3.org/2000/svg">
<circle cx="95.5" cy="35.5" r="14.5" fill="#FF4848"/>
<line y1="-0.5" x2="130" y2="-0.5" transform="matrix(4.37114e-08 1 1 -4.37114e-08 130 1)" stroke="white"/>
<line x1="4.37114e-08" y1="0.5" x2="130" y2="0.500011" stroke="white"/>
<path d="M7.66695 34.846H16.845C17.7116 34.846 18.3356 34.664 18.717 34.3C19.0983 33.936 19.289 33.4853 19.289 32.948V32.922C19.289 32.4193 19.0983 31.986 18.717 31.622C18.353 31.2407 17.729 31.05 16.845 31.05H7.66695V34.846ZM7.66695 46H1.60895V26.656H17.209C18.821 26.656 20.1643 26.786 21.239 27.046C22.3136 27.306 23.1716 27.67 23.813 28.138C24.4716 28.5887 24.931 29.1173 25.191 29.724C25.4683 30.3307 25.607 30.9807 25.607 31.674V31.986C25.607 32.6793 25.477 33.2687 25.217 33.754C24.9743 34.2393 24.6623 34.6553 24.281 35.002C23.917 35.3313 23.527 35.5913 23.111 35.782C22.695 35.9727 22.331 36.12 22.019 36.224C22.5043 36.3627 22.9723 36.5533 23.423 36.796C23.8736 37.0387 24.2636 37.3507 24.593 37.732C24.9223 38.096 25.1823 38.5207 25.373 39.006C25.581 39.4913 25.685 40.046 25.685 40.67V43.504C25.685 44.284 25.7196 44.8387 25.789 45.168C25.8756 45.48 25.9623 45.714 26.049 45.87V46H19.887C19.8003 45.8787 19.731 45.7313 19.679 45.558C19.627 45.3847 19.601 45.1247 19.601 44.778V42.542C19.601 41.3633 19.2976 40.5053 18.691 39.968C18.1016 39.4133 17.0616 39.136 15.571 39.136H7.66695V46ZM48.45 26.656V31.05H34.046V33.91H48.112V38.33H34.046V41.502H48.71V46H28.066V26.656H48.45ZM63.3395 46.338C61.4675 46.338 59.8468 46.182 58.4775 45.87C57.1255 45.5407 55.9641 45.116 54.9935 44.596C54.0401 44.0587 53.2601 43.452 52.6535 42.776C52.0641 42.1 51.5961 41.4067 51.2495 40.696C50.9201 39.968 50.6948 39.2573 50.5735 38.564C50.4521 37.8533 50.3915 37.212 50.3915 36.64V35.886C50.3915 35.2967 50.4435 34.6553 50.5475 33.962C50.6688 33.2513 50.8855 32.5493 51.1975 31.856C51.5268 31.1453 51.9861 30.4607 52.5755 29.802C53.1648 29.126 53.9361 28.5367 54.8895 28.034C55.8601 27.514 57.0301 27.098 58.3995 26.786C59.7861 26.474 61.4328 26.318 63.3395 26.318H64.4055C66.2775 26.318 67.8981 26.4567 69.2675 26.734C70.6368 26.994 71.7981 27.3493 72.7515 27.8C73.7048 28.2333 74.4761 28.7273 75.0655 29.282C75.6721 29.8367 76.1401 30.4 76.4695 30.972C76.8161 31.5267 77.0501 32.064 77.1715 32.584C77.2928 33.104 77.3535 33.5547 77.3535 33.936V34.222H70.9315C70.8968 34.1007 70.7928 33.8667 70.6195 33.52C70.4635 33.156 70.1341 32.792 69.6315 32.428C69.1461 32.0467 68.4441 31.7173 67.5255 31.44C66.6241 31.1453 65.4021 30.998 63.8595 30.998C62.4035 30.998 61.2161 31.1453 60.2975 31.44C59.3788 31.7347 58.6508 32.1247 58.1135 32.61C57.5935 33.078 57.2295 33.6153 57.0215 34.222C56.8308 34.8113 56.7355 35.4093 56.7355 36.016V36.328C56.7355 36.9 56.8395 37.498 57.0475 38.122C57.2728 38.746 57.6541 39.318 58.1915 39.838C58.7461 40.358 59.4828 40.7913 60.4015 41.138C61.3375 41.4673 62.5075 41.632 63.9115 41.632C65.4715 41.632 66.7108 41.476 67.6295 41.164C68.5481 40.852 69.2501 40.4967 69.7355 40.098C70.2208 39.682 70.5328 39.292 70.6715 38.928C70.8275 38.5467 70.9228 38.304 70.9575 38.2H77.3795V38.486C77.3795 38.8847 77.3101 39.3613 77.1715 39.916C77.0501 40.4707 76.8161 41.0427 76.4695 41.632C76.1228 42.204 75.6461 42.776 75.0395 43.348C74.4328 43.9027 73.6441 44.4053 72.6735 44.856C71.7201 45.2893 70.5588 45.6447 69.1895 45.922C67.8375 46.1993 66.2428 46.338 64.4055 46.338H63.3395Z" fill="white"/>
</svg>
