<svg width="400" height="145" viewBox="0 0 400 145" fill="none" xmlns="http://www.w3.org/2000/svg">
<line y1="144.5" x2="130" y2="144.5" stroke="white"/>
<line x1="0.5" y1="15" x2="0.499994" y2="145" stroke="white"/>
<path d="M21.242 4.888H42.517V22H37.158V9.028H26.601V22H21.242V4.888ZM49.9737 15.813C49.9737 16.1963 50.0657 16.5797 50.2497 16.963C50.4337 17.3463 50.7097 17.6913 51.0777 17.998C51.461 18.3047 51.9363 18.5577 52.5037 18.757C53.0863 18.941 53.7687 19.033 54.5507 19.033H54.6657C55.4937 19.033 56.176 18.941 56.7127 18.757C57.2647 18.5577 57.7017 18.3047 58.0237 17.998C58.3457 17.676 58.568 17.3233 58.6907 16.94C58.8287 16.5567 58.8977 16.181 58.8977 15.813V15.721C58.8977 15.3223 58.8287 14.9313 58.6907 14.548C58.568 14.1647 58.3457 13.8273 58.0237 13.536C57.7017 13.2293 57.2647 12.984 56.7127 12.8C56.176 12.616 55.4937 12.524 54.6657 12.524H54.5507C53.7533 12.524 53.0633 12.616 52.4807 12.8C51.9133 12.984 51.438 13.2293 51.0547 13.536C50.6867 13.8273 50.4107 14.1647 50.2267 14.548C50.058 14.9313 49.9737 15.3223 49.9737 15.721V15.813ZM49.9737 9.626V11.397C50.1117 11.2743 50.334 11.098 50.6407 10.868C50.9627 10.638 51.3843 10.408 51.9057 10.178C52.427 9.948 53.048 9.74867 53.7687 9.58C54.4893 9.41133 55.3173 9.327 56.2527 9.327H56.6667C58.062 9.327 59.235 9.49567 60.1857 9.833C61.1517 10.155 61.926 10.5997 62.5087 11.167C63.0913 11.719 63.5053 12.3783 63.7507 13.145C64.0113 13.8963 64.1417 14.6937 64.1417 15.537V15.974C64.1417 16.7867 64.0113 17.5763 63.7507 18.343C63.49 19.0943 63.0607 19.769 62.4627 20.367C61.8647 20.9497 61.075 21.4173 60.0937 21.77C59.1277 22.1227 57.9317 22.299 56.5057 22.299H56.1377C55.2177 22.299 54.3973 22.2147 53.6767 22.046C52.956 21.8773 52.335 21.678 51.8137 21.448C51.3077 21.218 50.9013 20.9957 50.5947 20.781C50.288 20.551 50.081 20.3747 49.9737 20.252V26.324H44.8447V9.626H49.9737ZM73.9246 22.345C72.1306 22.345 70.6586 22.1457 69.5086 21.747C68.3586 21.3483 67.4462 20.8423 66.7716 20.229C66.1122 19.6003 65.6522 18.9103 65.3916 18.159C65.1462 17.4077 65.0236 16.6717 65.0236 15.951V15.537C65.0236 14.8317 65.1462 14.111 65.3916 13.375C65.6522 12.6237 66.1122 11.949 66.7716 11.351C67.4309 10.7377 68.3356 10.2393 69.4856 9.856C70.6356 9.47267 72.1076 9.281 73.9016 9.281H75.5346C77.4206 9.281 78.9386 9.48033 80.0886 9.879C81.2539 10.2623 82.1509 10.7607 82.7796 11.374C83.4236 11.972 83.8529 12.639 84.0676 13.375C84.2822 14.111 84.3896 14.8317 84.3896 15.537V15.951C84.3896 16.6717 84.2822 17.4077 84.0676 18.159C83.8682 18.9103 83.4542 19.6003 82.8256 20.229C82.1969 20.8423 81.2999 21.3483 80.1346 21.747C78.9846 22.1457 77.4512 22.345 75.5346 22.345H73.9246ZM74.7296 19.01C75.6036 19.01 76.3242 18.9103 76.8916 18.711C77.4742 18.5117 77.9342 18.2587 78.2716 17.952C78.6089 17.6453 78.8466 17.308 78.9846 16.94C79.1226 16.5567 79.1916 16.181 79.1916 15.813V15.698C79.1916 15.3147 79.1226 14.939 78.9846 14.571C78.8466 14.1877 78.6089 13.8503 78.2716 13.559C77.9342 13.2677 77.4742 13.03 76.8916 12.846C76.3242 12.662 75.6112 12.57 74.7526 12.57H74.7296C73.8556 12.57 73.1272 12.662 72.5446 12.846C71.9772 13.0147 71.5249 13.2523 71.1876 13.559C70.8502 13.8503 70.6126 14.1877 70.4746 14.571C70.3366 14.939 70.2676 15.3147 70.2676 15.698V15.813C70.2676 16.181 70.3366 16.5567 70.4746 16.94C70.6126 17.308 70.8502 17.6453 71.1876 17.952C71.5249 18.2587 71.9772 18.5117 72.5446 18.711C73.1272 18.9103 73.8556 19.01 74.7296 19.01ZM85.7669 9.626H90.8959V17.423L98.6699 9.626H103.914V22H98.7849V14.203L91.0109 22H85.7669V9.626ZM122.888 18.573C122.888 19.079 122.734 19.562 122.428 20.022C122.136 20.482 121.661 20.8883 121.002 21.241C120.358 21.5783 119.522 21.8467 118.495 22.046C117.483 22.2453 116.256 22.345 114.815 22.345H114.286C112.967 22.345 111.756 22.2377 110.652 22.023C109.548 21.8237 108.597 21.517 107.8 21.103C107.018 20.6737 106.404 20.1447 105.96 19.516C105.515 18.8873 105.293 18.1513 105.293 17.308V17.193H110.56C110.56 17.929 110.866 18.458 111.48 18.78C112.108 19.102 113.074 19.263 114.378 19.263C115.42 19.263 116.218 19.1633 116.77 18.964C117.337 18.7493 117.621 18.4427 117.621 18.044V17.952C117.621 17.722 117.552 17.538 117.414 17.4C117.276 17.262 117.092 17.1623 116.862 17.101C116.632 17.0243 116.363 16.9783 116.057 16.963C115.765 16.9323 115.459 16.917 115.137 16.917H111.388V14.203H115.367C116.501 14.203 117.069 13.8963 117.069 13.283V13.214C117.069 12.8153 116.793 12.5393 116.241 12.386C115.704 12.2327 114.983 12.156 114.079 12.156C113.389 12.156 112.821 12.202 112.377 12.294C111.932 12.3707 111.579 12.478 111.319 12.616C111.058 12.754 110.874 12.915 110.767 13.099C110.659 13.283 110.59 13.467 110.56 13.651H105.293V13.467C105.293 12.7617 105.492 12.1483 105.891 11.627C106.289 11.1057 106.864 10.6763 107.616 10.339C108.382 9.98633 109.318 9.72567 110.422 9.557C111.526 9.373 112.775 9.281 114.171 9.281H114.539C115.75 9.281 116.831 9.35 117.782 9.488C118.748 9.626 119.56 9.82533 120.22 10.086C120.894 10.3467 121.408 10.6687 121.761 11.052C122.129 11.4353 122.313 11.88 122.313 12.386V12.616C122.313 13.306 122.044 13.904 121.508 14.41C120.971 14.916 120.074 15.2303 118.817 15.353C120.105 15.4757 121.101 15.813 121.807 16.365C122.527 16.917 122.888 17.5763 122.888 18.343V18.573ZM124.242 22V9.626H133.396C134.715 9.626 135.827 9.68733 136.731 9.81C137.636 9.93267 138.364 10.1167 138.916 10.362C139.468 10.6073 139.859 10.914 140.089 11.282C140.335 11.6347 140.457 12.041 140.457 12.501V12.731C140.457 13.4057 140.204 13.9577 139.698 14.387C139.208 14.8163 138.533 15.1307 137.674 15.33C138.104 15.422 138.518 15.5523 138.916 15.721C139.33 15.8743 139.691 16.0737 139.997 16.319C140.319 16.5643 140.572 16.8557 140.756 17.193C140.94 17.515 141.032 17.8753 141.032 18.274V18.504C141.032 18.9947 140.917 19.4547 140.687 19.884C140.473 20.298 140.112 20.666 139.606 20.988C139.116 21.2947 138.464 21.54 137.651 21.724C136.854 21.908 135.873 22 134.707 22H124.242ZM133.143 14.203C133.941 14.203 134.485 14.1263 134.776 13.973C135.083 13.8197 135.236 13.5897 135.236 13.283V13.214C135.236 12.9227 135.083 12.708 134.776 12.57C134.485 12.4167 133.933 12.34 133.12 12.34H129.371V14.203H133.143ZM133.603 19.217C135.075 19.217 135.811 18.8183 135.811 18.021V17.906C135.811 17.17 135.068 16.802 133.58 16.802H129.371V19.217H133.603ZM151.011 22.345C149.217 22.345 147.745 22.1457 146.595 21.747C145.445 21.3483 144.532 20.8423 143.858 20.229C143.198 19.6003 142.738 18.9103 142.478 18.159C142.232 17.4077 142.11 16.6717 142.11 15.951V15.537C142.11 14.8317 142.232 14.111 142.478 13.375C142.738 12.6237 143.198 11.949 143.858 11.351C144.517 10.7377 145.422 10.2393 146.572 9.856C147.722 9.47267 149.194 9.281 150.988 9.281H152.621C154.507 9.281 156.025 9.48033 157.175 9.879C158.34 10.2623 159.237 10.7607 159.866 11.374C160.51 11.972 160.939 12.639 161.154 13.375C161.368 14.111 161.476 14.8317 161.476 15.537V15.951C161.476 16.6717 161.368 17.4077 161.154 18.159C160.954 18.9103 160.54 19.6003 159.912 20.229C159.283 20.8423 158.386 21.3483 157.221 21.747C156.071 22.1457 154.537 22.345 152.621 22.345H151.011ZM151.816 19.01C152.69 19.01 153.41 18.9103 153.978 18.711C154.56 18.5117 155.02 18.2587 155.358 17.952C155.695 17.6453 155.933 17.308 156.071 16.94C156.209 16.5567 156.278 16.181 156.278 15.813V15.698C156.278 15.3147 156.209 14.939 156.071 14.571C155.933 14.1877 155.695 13.8503 155.358 13.559C155.02 13.2677 154.56 13.03 153.978 12.846C153.41 12.662 152.697 12.57 151.839 12.57H151.816C150.942 12.57 150.213 12.662 149.631 12.846C149.063 13.0147 148.611 13.2523 148.274 13.559C147.936 13.8503 147.699 14.1877 147.561 14.571C147.423 14.939 147.354 15.3147 147.354 15.698V15.813C147.354 16.181 147.423 16.5567 147.561 16.94C147.699 17.308 147.936 17.6453 148.274 17.952C148.611 18.2587 149.063 18.5117 149.631 18.711C150.213 18.9103 150.942 19.01 151.816 19.01ZM161.507 18.596H163.37C163.538 18.1973 163.676 17.7603 163.784 17.285C163.906 16.8097 164.006 16.227 164.083 15.537C164.159 14.847 164.221 14.0267 164.267 13.076C164.313 12.1253 164.351 10.9753 164.382 9.626H179.907V18.596H182.437V24.76H177.538V22H166.383V24.76H161.507V18.596ZM174.778 18.596V12.915H169.051C169.005 14.2183 168.92 15.3147 168.798 16.204C168.69 17.0933 168.506 17.8907 168.246 18.596H174.778ZM183.562 9.626H188.691V17.423L196.465 9.626H201.709V22H196.58V14.203L188.806 22H183.562V9.626ZM208.516 14.916V22H203.732V9.626H209.942L214.565 16.779L219.28 9.626H225.283V22H220.154V14.985L215.6 22H213.07L208.516 14.916ZM228.65 24.254C228.849 23.8707 229.025 23.4873 229.179 23.104C229.332 22.7207 229.439 22.3527 229.501 22H227.109V17.975H232.652V21.31C232.652 21.54 232.613 21.7853 232.537 22.046C232.475 22.322 232.391 22.5903 232.284 22.851C232.192 23.1117 232.077 23.3647 231.939 23.61C231.816 23.8553 231.693 24.07 231.571 24.254H228.65ZM20.115 43.596H21.978C22.1467 43.1973 22.2847 42.7603 22.392 42.285C22.5147 41.8097 22.6143 41.227 22.691 40.537C22.7677 39.847 22.829 39.0267 22.875 38.076C22.921 37.1253 22.9593 35.9753 22.99 34.626H38.515V43.596H41.045V49.76H36.146V47H24.991V49.76H20.115V43.596ZM33.386 43.596V37.915H27.659C27.613 39.2183 27.5287 40.3147 27.406 41.204C27.2987 42.0933 27.1147 42.8907 26.854 43.596H33.386ZM42.1702 34.626H47.2992V42.423L55.0732 34.626H60.3172V47H55.1882V39.203L47.4142 47H42.1702V34.626ZM70.4591 47.345C68.6958 47.345 67.2545 47.1457 66.1351 46.747C65.0158 46.333 64.1341 45.8193 63.4901 45.206C62.8615 44.5773 62.4245 43.8873 62.1791 43.136C61.9491 42.3847 61.8341 41.664 61.8341 40.974V40.514C61.8341 39.824 61.9491 39.111 62.1791 38.375C62.4245 37.639 62.8615 36.972 63.4901 36.374C64.1188 35.7607 64.9928 35.2623 66.1121 34.879C67.2315 34.4803 68.6728 34.281 70.4361 34.281H71.7471C73.0351 34.281 74.1391 34.3807 75.0591 34.58C75.9945 34.764 76.7841 35.0093 77.4281 35.316C78.0721 35.6227 78.5935 35.9753 78.9921 36.374C79.3908 36.7573 79.6975 37.1483 79.9121 37.547C80.1268 37.9457 80.2648 38.3367 80.3261 38.72C80.4028 39.088 80.4411 39.41 80.4411 39.686V39.755H75.1741C75.1435 39.6323 75.0745 39.4483 74.9671 39.203C74.8751 38.9577 74.6835 38.7123 74.3921 38.467C74.1161 38.2063 73.7098 37.984 73.1731 37.8C72.6518 37.616 71.9541 37.524 71.0801 37.524H71.0111C70.2598 37.524 69.6311 37.6083 69.1251 37.777C68.6345 37.9457 68.2358 38.1757 67.9291 38.467C67.6225 38.7583 67.4001 39.088 67.2621 39.456C67.1395 39.824 67.0781 40.1997 67.0781 40.583V40.744C67.0781 41.158 67.1395 41.5643 67.2621 41.963C67.4001 42.3617 67.6225 42.7143 67.9291 43.021C68.2358 43.3277 68.6421 43.5807 69.1481 43.78C69.6541 43.964 70.2751 44.056 71.0111 44.056H71.0801C71.9388 44.056 72.6288 43.964 73.1501 43.78C73.6868 43.5807 74.1008 43.3583 74.3921 43.113C74.6835 42.8523 74.8751 42.5993 74.9671 42.354C75.0745 42.0933 75.1435 41.9017 75.1741 41.779H80.4411V41.825C80.4411 42.1163 80.4105 42.4537 80.3491 42.837C80.2878 43.2203 80.1498 43.619 79.9351 44.033C79.7358 44.4317 79.4368 44.8303 79.0381 45.229C78.6548 45.6277 78.1411 45.988 77.4971 46.31C76.8531 46.6167 76.0558 46.862 75.1051 47.046C74.1698 47.2453 73.0428 47.345 71.7241 47.345H70.4591ZM86.0352 38.03H80.8602V34.626H96.3392V38.03H91.1642V47H86.0352V38.03ZM103.116 40.813C103.116 41.1963 103.208 41.5797 103.392 41.963C103.576 42.3463 103.852 42.6913 104.22 42.998C104.604 43.3047 105.079 43.5577 105.646 43.757C106.229 43.941 106.911 44.033 107.693 44.033H107.808C108.636 44.033 109.319 43.941 109.855 43.757C110.407 43.5577 110.844 43.3047 111.166 42.998C111.488 42.676 111.711 42.3233 111.833 41.94C111.971 41.5567 112.04 41.181 112.04 40.813V40.721C112.04 40.3223 111.971 39.9313 111.833 39.548C111.711 39.1647 111.488 38.8273 111.166 38.536C110.844 38.2293 110.407 37.984 109.855 37.8C109.319 37.616 108.636 37.524 107.808 37.524H107.693C106.896 37.524 106.206 37.616 105.623 37.8C105.056 37.984 104.581 38.2293 104.197 38.536C103.829 38.8273 103.553 39.1647 103.369 39.548C103.201 39.9313 103.116 40.3223 103.116 40.721V40.813ZM103.116 34.626V36.397C103.254 36.2743 103.477 36.098 103.783 35.868C104.105 35.638 104.527 35.408 105.048 35.178C105.57 34.948 106.191 34.7487 106.911 34.58C107.632 34.4113 108.46 34.327 109.395 34.327H109.809C111.205 34.327 112.378 34.4957 113.328 34.833C114.294 35.155 115.069 35.5997 115.651 36.167C116.234 36.719 116.648 37.3783 116.893 38.145C117.154 38.8963 117.284 39.6937 117.284 40.537V40.974C117.284 41.7867 117.154 42.5763 116.893 43.343C116.633 44.0943 116.203 44.769 115.605 45.367C115.007 45.9497 114.218 46.4173 113.236 46.77C112.27 47.1227 111.074 47.299 109.648 47.299H109.28C108.36 47.299 107.54 47.2147 106.819 47.046C106.099 46.8773 105.478 46.678 104.956 46.448C104.45 46.218 104.044 45.9957 103.737 45.781C103.431 45.551 103.224 45.3747 103.116 45.252V51.324H97.9873V34.626H103.116ZM118.672 34.626H123.801V42.423L131.575 34.626H136.819V47H131.69V39.203L123.916 47H118.672V34.626ZM157.035 41.365C157.035 42.5917 156.751 43.596 156.184 44.378C155.632 45.1447 154.911 45.7503 154.022 46.195C153.148 46.6243 152.167 46.9233 151.078 47.092C150.005 47.2607 148.939 47.345 147.881 47.345H147.421C146.317 47.345 145.213 47.2453 144.109 47.046C143.02 46.862 142.039 46.5017 141.165 45.965C140.306 45.4283 139.609 44.6847 139.072 43.734C138.535 42.7833 138.267 41.549 138.267 40.031V38.421C138.267 37.179 138.413 36.052 138.704 35.04C138.995 34.0127 139.501 33.1387 140.222 32.418C140.958 31.682 141.932 31.1223 143.143 30.739C144.37 30.3403 145.903 30.141 147.743 30.141H150.526C150.833 30.141 151.063 30.118 151.216 30.072C151.385 30.0107 151.507 29.9417 151.584 29.865C151.676 29.7883 151.73 29.6963 151.745 29.589H156.713C156.713 30.3097 156.621 30.9383 156.437 31.475C156.268 31.9963 155.977 32.4333 155.563 32.786C155.149 33.1233 154.597 33.3763 153.907 33.545C153.232 33.7137 152.381 33.798 151.354 33.798H148.226C147.275 33.798 146.47 33.8747 145.811 34.028C145.152 34.166 144.615 34.3807 144.201 34.672C143.802 34.9633 143.511 35.3313 143.327 35.776C143.143 36.2207 143.051 36.7497 143.051 37.363V37.478C143.235 37.2327 143.511 36.9797 143.879 36.719C144.247 36.443 144.699 36.1977 145.236 35.983C145.788 35.753 146.424 35.569 147.145 35.431C147.866 35.2777 148.678 35.201 149.583 35.201H149.721C150.166 35.201 150.656 35.2317 151.193 35.293C151.73 35.3543 152.266 35.4617 152.803 35.615C153.34 35.7683 153.861 35.983 154.367 36.259C154.888 36.535 155.341 36.88 155.724 37.294C156.123 37.708 156.437 38.214 156.667 38.812C156.912 39.3947 157.035 40.0847 157.035 40.882V41.365ZM147.651 44.01C149.046 44.01 150.081 43.7493 150.756 43.228C151.446 42.6913 151.791 42.055 151.791 41.319V41.066C151.791 40.2533 151.446 39.6247 150.756 39.18C150.066 38.72 149.031 38.49 147.651 38.49C146.286 38.49 145.251 38.7123 144.546 39.157C143.856 39.6017 143.511 40.238 143.511 41.066V41.319C143.511 42.0857 143.856 42.7297 144.546 43.251C145.236 43.757 146.271 44.01 147.651 44.01ZM159.277 47.644H162.175C162.42 47.644 162.581 47.6057 162.658 47.529C162.735 47.4677 162.773 47.3757 162.773 47.253C162.773 47.1303 162.719 46.9693 162.612 46.77C162.52 46.5707 162.382 46.2947 162.198 45.942L156.287 34.626H161.807L165.786 42.998L169.65 34.626H174.802L168.316 47.828C168.025 48.4107 167.726 48.9167 167.419 49.346C167.128 49.7907 166.798 50.1587 166.43 50.45C166.077 50.7413 165.679 50.956 165.234 51.094C164.805 51.2473 164.314 51.324 163.762 51.324H159.277V47.644ZM180.169 38.03H174.994V34.626H190.473V38.03H185.298V47H180.169V38.03ZM192.052 34.626H197.181V42.423L204.955 34.626H210.199V47H205.07V39.203L197.296 47H192.052V34.626ZM217.42 40.813C217.42 41.1963 217.512 41.5797 217.696 41.963C217.88 42.3463 218.156 42.6913 218.524 42.998C218.907 43.3047 219.383 43.5577 219.95 43.757C220.533 43.941 221.215 44.033 221.997 44.033H222.112C222.94 44.033 223.622 43.941 224.159 43.757C224.711 43.5577 225.148 43.3047 225.47 42.998C225.792 42.676 226.014 42.3233 226.137 41.94C226.275 41.5567 226.344 41.181 226.344 40.813V40.721C226.344 40.3223 226.275 39.9313 226.137 39.548C226.014 39.1647 225.792 38.8273 225.47 38.536C225.148 38.2293 224.711 37.984 224.159 37.8C223.622 37.616 222.94 37.524 222.112 37.524H221.997C221.2 37.524 220.51 37.616 219.927 37.8C219.36 37.984 218.884 38.2293 218.501 38.536C218.133 38.8273 217.857 39.1647 217.673 39.548C217.504 39.9313 217.42 40.3223 217.42 40.721V40.813ZM217.42 34.626V36.397C217.558 36.2743 217.78 36.098 218.087 35.868C218.409 35.638 218.831 35.408 219.352 35.178C219.873 34.948 220.494 34.7487 221.215 34.58C221.936 34.4113 222.764 34.327 223.699 34.327H224.113C225.508 34.327 226.681 34.4957 227.632 34.833C228.598 35.155 229.372 35.5997 229.955 36.167C230.538 36.719 230.952 37.3783 231.197 38.145C231.458 38.8963 231.588 39.6937 231.588 40.537V40.974C231.588 41.7867 231.458 42.5763 231.197 43.343C230.936 44.0943 230.507 44.769 229.909 45.367C229.311 45.9497 228.521 46.4173 227.54 46.77C226.574 47.1227 225.378 47.299 223.952 47.299H223.584C222.664 47.299 221.844 47.2147 221.123 47.046C220.402 46.8773 219.781 46.678 219.26 46.448C218.754 46.218 218.348 45.9957 218.041 45.781C217.734 45.551 217.527 45.3747 217.42 45.252V51.324H212.291V34.626H217.42ZM233.96 47.644H236.858C237.103 47.644 237.264 47.6057 237.341 47.529C237.417 47.4677 237.456 47.3757 237.456 47.253C237.456 47.1303 237.402 46.9693 237.295 46.77C237.203 46.5707 237.065 46.2947 236.881 45.942L230.97 34.626H236.49L240.469 42.998L244.333 34.626H249.485L242.999 47.828C242.707 48.4107 242.408 48.9167 242.102 49.346C241.81 49.7907 241.481 50.1587 241.113 50.45C240.76 50.7413 240.361 50.956 239.917 51.094C239.487 51.2473 238.997 51.324 238.445 51.324H233.96V47.644ZM258.202 37.156C256.914 37.156 255.956 37.34 255.327 37.708C254.699 38.076 254.285 38.5897 254.085 39.249H262.365C262.197 38.5897 261.79 38.076 261.146 37.708C260.502 37.34 259.529 37.156 258.225 37.156H258.202ZM267.471 42.653C267.471 43.067 267.372 43.55 267.172 44.102C266.988 44.6387 266.597 45.1523 265.999 45.643C265.401 46.1183 264.543 46.5247 263.423 46.862C262.304 47.184 260.824 47.345 258.984 47.345H257.673C256.017 47.345 254.63 47.1687 253.51 46.816C252.406 46.4633 251.517 45.9957 250.842 45.413C250.168 44.815 249.685 44.1403 249.393 43.389C249.102 42.6223 248.956 41.8327 248.956 41.02V40.514C248.956 39.7167 249.087 38.95 249.347 38.214C249.623 37.4627 250.083 36.7957 250.727 36.213C251.387 35.6303 252.268 35.1627 253.372 34.81C254.476 34.4573 255.864 34.281 257.535 34.281H258.938C260.748 34.281 262.212 34.488 263.331 34.902C264.466 35.316 265.34 35.845 265.953 36.489C266.582 37.133 267.004 37.8537 267.218 38.651C267.433 39.433 267.54 40.1997 267.54 40.951V41.802H253.993C254.147 42.5227 254.561 43.1053 255.235 43.55C255.91 43.9947 256.953 44.217 258.363 44.217H258.386C259.23 44.217 259.912 44.148 260.433 44.01C260.955 43.872 261.361 43.7187 261.652 43.55C261.944 43.366 262.135 43.1897 262.227 43.021C262.335 42.837 262.396 42.7067 262.411 42.63H267.471V42.653ZM273.675 39.916V47H268.891V34.626H275.101L279.724 41.779L284.439 34.626H290.442V47H285.313V39.985L280.759 47H278.229L273.675 39.916ZM293.809 49.254C294.008 48.8707 294.185 48.4873 294.338 48.104C294.491 47.7207 294.599 47.3527 294.66 47H292.268V42.975H297.811V46.31C297.811 46.54 297.773 46.7853 297.696 47.046C297.635 47.322 297.55 47.5903 297.443 47.851C297.351 48.1117 297.236 48.3647 297.098 48.61C296.975 48.8553 296.853 49.07 296.73 49.254H293.809ZM29.407 72.345C27.613 72.345 26.141 72.1457 24.991 71.747C23.841 71.3483 22.9287 70.8423 22.254 70.229C21.5947 69.6003 21.1347 68.9103 20.874 68.159C20.6287 67.4077 20.506 66.6717 20.506 65.951V65.537C20.506 64.8317 20.6287 64.111 20.874 63.375C21.1347 62.6237 21.5947 61.949 22.254 61.351C22.9133 60.7377 23.818 60.2393 24.968 59.856C26.118 59.4727 27.59 59.281 29.384 59.281H31.017C32.903 59.281 34.421 59.4803 35.571 59.879C36.7363 60.2623 37.6333 60.7607 38.262 61.374C38.906 61.972 39.3353 62.639 39.55 63.375C39.7647 64.111 39.872 64.8317 39.872 65.537V65.951C39.872 66.6717 39.7647 67.4077 39.55 68.159C39.3507 68.9103 38.9367 69.6003 38.308 70.229C37.6793 70.8423 36.7823 71.3483 35.617 71.747C34.467 72.1457 32.9337 72.345 31.017 72.345H29.407ZM30.212 69.01C31.086 69.01 31.8067 68.9103 32.374 68.711C32.9567 68.5117 33.4167 68.2587 33.754 67.952C34.0913 67.6453 34.329 67.308 34.467 66.94C34.605 66.5567 34.674 66.181 34.674 65.813V65.698C34.674 65.3147 34.605 64.939 34.467 64.571C34.329 64.1877 34.0913 63.8503 33.754 63.559C33.4167 63.2677 32.9567 63.03 32.374 62.846C31.8067 62.662 31.0937 62.57 30.235 62.57H30.212C29.338 62.57 28.6097 62.662 28.027 62.846C27.4597 63.0147 27.0073 63.2523 26.67 63.559C26.3327 63.8503 26.095 64.1877 25.957 64.571C25.819 64.939 25.75 65.3147 25.75 65.698V65.813C25.75 66.181 25.819 66.5567 25.957 66.94C26.095 67.308 26.3327 67.6453 26.67 67.952C27.0073 68.2587 27.4597 68.5117 28.027 68.711C28.6097 68.9103 29.338 69.01 30.212 69.01ZM58.2003 68.573C58.2003 69.079 58.047 69.562 57.7403 70.022C57.449 70.482 56.9736 70.8883 56.3143 71.241C55.6703 71.5783 54.8346 71.8467 53.8073 72.046C52.7953 72.2453 51.5686 72.345 50.1273 72.345H49.5983C48.2796 72.345 47.0683 72.2377 45.9643 72.023C44.8603 71.8237 43.9096 71.517 43.1123 71.103C42.3303 70.6737 41.717 70.1447 41.2723 69.516C40.8276 68.8873 40.6053 68.1513 40.6053 67.308V67.193H45.8723C45.8723 67.929 46.179 68.458 46.7923 68.78C47.421 69.102 48.387 69.263 49.6903 69.263C50.733 69.263 51.5303 69.1633 52.0823 68.964C52.6496 68.7493 52.9333 68.4427 52.9333 68.044V67.952C52.9333 67.722 52.8643 67.538 52.7263 67.4C52.5883 67.262 52.4043 67.1623 52.1743 67.101C51.9443 67.0243 51.676 66.9783 51.3693 66.963C51.078 66.9323 50.7713 66.917 50.4493 66.917H46.7003V64.203H50.6793C51.814 64.203 52.3813 63.8963 52.3813 63.283V63.214C52.3813 62.8153 52.1053 62.5393 51.5533 62.386C51.0166 62.2327 50.296 62.156 49.3913 62.156C48.7013 62.156 48.134 62.202 47.6893 62.294C47.2446 62.3707 46.892 62.478 46.6313 62.616C46.3706 62.754 46.1866 62.915 46.0793 63.099C45.972 63.283 45.903 63.467 45.8723 63.651H40.6053V63.467C40.6053 62.7617 40.8046 62.1483 41.2033 61.627C41.602 61.1057 42.177 60.6763 42.9283 60.339C43.695 59.9863 44.6303 59.7257 45.7343 59.557C46.8383 59.373 48.088 59.281 49.4833 59.281H49.8513C51.0626 59.281 52.1436 59.35 53.0943 59.488C54.0603 59.626 54.873 59.8253 55.5323 60.086C56.207 60.3467 56.7206 60.6687 57.0733 61.052C57.4413 61.4353 57.6253 61.88 57.6253 62.386V62.616C57.6253 63.306 57.357 63.904 56.8203 64.41C56.2836 64.916 55.3866 65.2303 54.1293 65.353C55.4173 65.4757 56.414 65.813 57.1193 66.365C57.84 66.917 58.2003 67.5763 58.2003 68.343V68.573ZM59.555 72V59.626H68.709C70.0276 59.626 71.1393 59.6873 72.044 59.81C72.9486 59.9327 73.677 60.1167 74.229 60.362C74.781 60.6073 75.172 60.914 75.402 61.282C75.6473 61.6347 75.77 62.041 75.77 62.501V62.731C75.77 63.4057 75.517 63.9577 75.011 64.387C74.5203 64.8163 73.8456 65.1307 72.987 65.33C73.4163 65.422 73.8303 65.5523 74.229 65.721C74.643 65.8743 75.0033 66.0737 75.31 66.319C75.632 66.5643 75.885 66.8557 76.069 67.193C76.253 67.515 76.345 67.8753 76.345 68.274V68.504C76.345 68.9947 76.23 69.4547 76 69.884C75.7853 70.298 75.425 70.666 74.919 70.988C74.4283 71.2947 73.7766 71.54 72.964 71.724C72.1666 71.908 71.1853 72 70.02 72H59.555ZM68.456 64.203C69.2533 64.203 69.7976 64.1263 70.089 63.973C70.3956 63.8197 70.549 63.5897 70.549 63.283V63.214C70.549 62.9227 70.3956 62.708 70.089 62.57C69.7976 62.4167 69.2456 62.34 68.433 62.34H64.684V64.203H68.456ZM68.916 69.217C70.388 69.217 71.124 68.8183 71.124 68.021V67.906C71.124 67.17 70.3803 66.802 68.893 66.802H64.684V69.217H68.916ZM79.2038 72.644H82.1018C82.3471 72.644 82.5081 72.6057 82.5848 72.529C82.6615 72.4677 82.6998 72.3757 82.6998 72.253C82.6998 72.1303 82.6461 71.9693 82.5388 71.77C82.4468 71.5707 82.3088 71.2947 82.1248 70.942L76.2138 59.626H81.7338L85.7128 67.998L89.5768 59.626H94.7288L88.2428 72.828C87.9515 73.4107 87.6525 73.9167 87.3458 74.346C87.0545 74.7907 86.7248 75.1587 86.3568 75.45C86.0041 75.7413 85.6055 75.956 85.1608 76.094C84.7315 76.2473 84.2408 76.324 83.6888 76.324H79.2038V72.644ZM110.837 59.626V72H105.708V67.768C105.493 67.814 105.048 67.883 104.374 67.975C103.699 68.0517 102.909 68.09 102.005 68.09C100.901 68.09 99.8964 68.0363 98.9917 67.929C98.1024 67.8217 97.3434 67.607 96.7147 67.285C96.086 66.9477 95.603 66.48 95.2657 65.882C94.9284 65.284 94.7597 64.4943 94.7597 63.513V59.626H99.8887V62.685C99.8887 63.0837 99.95 63.4133 100.073 63.674C100.211 63.9347 100.418 64.1417 100.694 64.295C100.985 64.433 101.353 64.5327 101.798 64.594C102.242 64.6553 102.787 64.686 103.431 64.686C103.86 64.686 104.289 64.663 104.719 64.617C105.163 64.571 105.493 64.5327 105.708 64.502V59.626H110.837ZM112.855 59.626H117.984V67.423L125.758 59.626H131.002V72H125.873V64.203L118.099 72H112.855V59.626ZM133.025 72V59.626H142.179C143.497 59.626 144.609 59.6873 145.514 59.81C146.418 59.9327 147.147 60.1167 147.699 60.362C148.251 60.6073 148.642 60.914 148.872 61.282C149.117 61.6347 149.24 62.041 149.24 62.501V62.731C149.24 63.4057 148.987 63.9577 148.481 64.387C147.99 64.8163 147.315 65.1307 146.457 65.33C146.886 65.422 147.3 65.5523 147.699 65.721C148.113 65.8743 148.473 66.0737 148.78 66.319C149.102 66.5643 149.355 66.8557 149.539 67.193C149.723 67.515 149.815 67.8753 149.815 68.274V68.504C149.815 68.9947 149.7 69.4547 149.47 69.884C149.255 70.298 148.895 70.666 148.389 70.988C147.898 71.2947 147.246 71.54 146.434 71.724C145.636 71.908 144.655 72 143.49 72H133.025ZM141.926 64.203C142.723 64.203 143.267 64.1263 143.559 63.973C143.865 63.8197 144.019 63.5897 144.019 63.283V63.214C144.019 62.9227 143.865 62.708 143.559 62.57C143.267 62.4167 142.715 62.34 141.903 62.34H138.154V64.203H141.926ZM142.386 69.217C143.858 69.217 144.594 68.8183 144.594 68.021V67.906C144.594 67.17 143.85 66.802 142.363 66.802H138.154V69.217H142.386ZM162.392 66.112L157.493 66.871C156.833 66.9783 156.358 67.1087 156.067 67.262C155.775 67.4153 155.63 67.6683 155.63 68.021V68.044C155.63 68.2127 155.66 68.3813 155.722 68.55C155.798 68.7187 155.921 68.872 156.09 69.01C156.274 69.1327 156.504 69.24 156.78 69.332C157.071 69.4087 157.439 69.447 157.884 69.447C158.574 69.447 159.195 69.3627 159.747 69.194C160.299 69.0253 160.766 68.803 161.15 68.527C161.548 68.251 161.855 67.9367 162.07 67.584C162.284 67.2313 162.392 66.871 162.392 66.503V66.112ZM162.53 70.298C162.392 70.4667 162.185 70.6583 161.909 70.873C161.633 71.0877 161.265 71.3023 160.805 71.517C160.36 71.7163 159.808 71.885 159.149 72.023C158.505 72.161 157.723 72.23 156.803 72.23H156.504C155.461 72.23 154.572 72.1227 153.836 71.908C153.115 71.678 152.525 71.379 152.065 71.011C151.605 70.6277 151.267 70.1983 151.053 69.723C150.853 69.2323 150.754 68.7187 150.754 68.182V68.021C150.754 66.8863 151.152 66.0277 151.95 65.445C152.762 64.8623 154.096 64.4867 155.952 64.318L161.61 63.789C161.901 63.7583 162.1 63.697 162.208 63.605C162.33 63.4977 162.392 63.3443 162.392 63.145C162.392 63.0377 162.361 62.9227 162.3 62.8C162.254 62.6773 162.123 62.57 161.909 62.478C161.694 62.3707 161.372 62.2863 160.943 62.225C160.513 62.1637 159.923 62.133 159.172 62.133H159.057C158.29 62.133 157.692 62.1867 157.263 62.294C156.833 62.4013 156.511 62.5317 156.297 62.685C156.097 62.823 155.967 62.9687 155.906 63.122C155.86 63.2753 155.829 63.4057 155.814 63.513H151.053V63.467C151.053 63.191 151.076 62.8997 151.122 62.593C151.168 62.271 151.267 61.9567 151.421 61.65C151.589 61.3433 151.835 61.052 152.157 60.776C152.479 60.4847 152.908 60.2317 153.445 60.017C153.997 59.787 154.679 59.6107 155.492 59.488C156.304 59.35 157.286 59.281 158.436 59.281H159.701C161.495 59.281 162.898 59.4037 163.91 59.649C164.937 59.8943 165.704 60.2163 166.21 60.615C166.716 60.9983 167.03 61.4277 167.153 61.903C167.275 62.3783 167.337 62.8383 167.337 63.283V68.021C167.337 68.205 167.375 68.3583 167.452 68.481C167.544 68.5883 167.72 68.642 167.981 68.642H168.648V72H164.485C163.994 72 163.565 71.862 163.197 71.586C162.844 71.31 162.622 70.8807 162.53 70.298ZM178.398 62.156C177.11 62.156 176.152 62.34 175.523 62.708C174.895 63.076 174.481 63.5897 174.281 64.249H182.561C182.393 63.5897 181.986 63.076 181.342 62.708C180.698 62.34 179.725 62.156 178.421 62.156H178.398ZM187.667 67.653C187.667 68.067 187.568 68.55 187.368 69.102C187.184 69.6387 186.793 70.1523 186.195 70.643C185.597 71.1183 184.739 71.5247 183.619 71.862C182.5 72.184 181.02 72.345 179.18 72.345H177.869C176.213 72.345 174.826 72.1687 173.706 71.816C172.602 71.4633 171.713 70.9957 171.038 70.413C170.364 69.815 169.881 69.1403 169.589 68.389C169.298 67.6223 169.152 66.8327 169.152 66.02V65.514C169.152 64.7167 169.283 63.95 169.543 63.214C169.819 62.4627 170.279 61.7957 170.923 61.213C171.583 60.6303 172.464 60.1627 173.568 59.81C174.672 59.4573 176.06 59.281 177.731 59.281H179.134C180.944 59.281 182.408 59.488 183.527 59.902C184.662 60.316 185.536 60.845 186.149 61.489C186.778 62.133 187.2 62.8537 187.414 63.651C187.629 64.433 187.736 65.1997 187.736 65.951V66.802H174.189C174.343 67.5227 174.757 68.1053 175.431 68.55C176.106 68.9947 177.149 69.217 178.559 69.217H178.582C179.426 69.217 180.108 69.148 180.629 69.01C181.151 68.872 181.557 68.7187 181.848 68.55C182.14 68.366 182.331 68.1897 182.423 68.021C182.531 67.837 182.592 67.7067 182.607 67.63H187.667V67.653ZM193.871 64.916V72H189.087V59.626H195.297L199.92 66.779L204.635 59.626H210.638V72H205.509V64.985L200.955 72H198.425L193.871 64.916ZM21.012 84.626H26.141V92.423L33.915 84.626H39.159V97H34.03V89.203L26.256 97H21.012V84.626ZM56.3761 97.345C54.6128 97.345 53.1715 97.1457 52.0521 96.747C50.9328 96.333 50.0511 95.8193 49.4071 95.206C48.7785 94.5773 48.3415 93.8873 48.0961 93.136C47.8661 92.3847 47.7511 91.664 47.7511 90.974V90.514C47.7511 89.824 47.8661 89.111 48.0961 88.375C48.3415 87.639 48.7785 86.972 49.4071 86.374C50.0358 85.7607 50.9098 85.2623 52.0291 84.879C53.1485 84.4803 54.5898 84.281 56.3531 84.281H57.6641C58.9521 84.281 60.0561 84.3807 60.9761 84.58C61.9115 84.764 62.7011 85.0093 63.3451 85.316C63.9891 85.6227 64.5105 85.9753 64.9091 86.374C65.3078 86.7573 65.6145 87.1483 65.8291 87.547C66.0438 87.9457 66.1818 88.3367 66.2431 88.72C66.3198 89.088 66.3581 89.41 66.3581 89.686V89.755H61.0911C61.0605 89.6323 60.9915 89.4483 60.8841 89.203C60.7921 88.9577 60.6005 88.7123 60.3091 88.467C60.0331 88.2063 59.6268 87.984 59.0901 87.8C58.5688 87.616 57.8711 87.524 56.9971 87.524H56.9281C56.1768 87.524 55.5481 87.6083 55.0421 87.777C54.5515 87.9457 54.1528 88.1757 53.8461 88.467C53.5395 88.7583 53.3171 89.088 53.1791 89.456C53.0565 89.824 52.9951 90.1997 52.9951 90.583V90.744C52.9951 91.158 53.0565 91.5643 53.1791 91.963C53.3171 92.3617 53.5395 92.7143 53.8461 93.021C54.1528 93.3277 54.5591 93.5807 55.0651 93.78C55.5711 93.964 56.1921 94.056 56.9281 94.056H56.9971C57.8558 94.056 58.5458 93.964 59.0671 93.78C59.6038 93.5807 60.0178 93.3583 60.3091 93.113C60.6005 92.8523 60.7921 92.5993 60.8841 92.354C60.9915 92.0933 61.0605 91.9017 61.0911 91.779H66.3581V91.825C66.3581 92.1163 66.3275 92.4537 66.2661 92.837C66.2048 93.2203 66.0668 93.619 65.8521 94.033C65.6528 94.4317 65.3538 94.8303 64.9551 95.229C64.5718 95.6277 64.0581 95.988 63.4141 96.31C62.7701 96.6167 61.9728 96.862 61.0221 97.046C60.0868 97.2453 58.9598 97.345 57.6411 97.345H56.3761ZM68.8493 97.644H71.7473C71.9926 97.644 72.1536 97.6057 72.2303 97.529C72.307 97.4677 72.3453 97.3757 72.3453 97.253C72.3453 97.1303 72.2916 96.9693 72.1843 96.77C72.0923 96.5707 71.9543 96.2947 71.7703 95.942L65.8593 84.626H71.3793L75.3583 92.998L79.2223 84.626H84.3743L77.8883 97.828C77.597 98.4107 77.298 98.9167 76.9913 99.346C76.7 99.7907 76.3703 100.159 76.0023 100.45C75.6496 100.741 75.251 100.956 74.8063 101.094C74.377 101.247 73.8863 101.324 73.3343 101.324H68.8493V97.644ZM103.196 91.365C103.196 92.5917 102.913 93.596 102.345 94.378C101.793 95.1447 101.073 95.7503 100.183 96.195C99.3092 96.6243 98.3279 96.9233 97.2392 97.092C96.1659 97.2607 95.1002 97.345 94.0422 97.345H93.5822C92.4782 97.345 91.3742 97.2453 90.2702 97.046C89.1815 96.862 88.2002 96.5017 87.3262 95.965C86.4675 95.4283 85.7699 94.6847 85.2332 93.734C84.6965 92.7833 84.4282 91.549 84.4282 90.031V88.421C84.4282 87.179 84.5739 86.052 84.8652 85.04C85.1565 84.0127 85.6625 83.1387 86.3832 82.418C87.1192 81.682 88.0929 81.1223 89.3042 80.739C90.5309 80.3403 92.0642 80.141 93.9042 80.141H96.6872C96.9939 80.141 97.2239 80.118 97.3772 80.072C97.5459 80.0107 97.6685 79.9417 97.7452 79.865C97.8372 79.7883 97.8909 79.6963 97.9062 79.589H102.874C102.874 80.3097 102.782 80.9383 102.598 81.475C102.43 81.9963 102.138 82.4333 101.724 82.786C101.31 83.1233 100.758 83.3763 100.068 83.545C99.3935 83.7137 98.5425 83.798 97.5152 83.798H94.3872C93.4365 83.798 92.6315 83.8747 91.9722 84.028C91.3129 84.166 90.7762 84.3807 90.3622 84.672C89.9635 84.9633 89.6722 85.3313 89.4882 85.776C89.3042 86.2207 89.2122 86.7497 89.2122 87.363V87.478C89.3962 87.2327 89.6722 86.9797 90.0402 86.719C90.4082 86.443 90.8605 86.1977 91.3972 85.983C91.9492 85.753 92.5855 85.569 93.3062 85.431C94.0269 85.2777 94.8395 85.201 95.7442 85.201H95.8822C96.3269 85.201 96.8175 85.2317 97.3542 85.293C97.8909 85.3543 98.4275 85.4617 98.9642 85.615C99.5009 85.7683 100.022 85.983 100.528 86.259C101.05 86.535 101.502 86.88 101.885 87.294C102.284 87.708 102.598 88.214 102.828 88.812C103.074 89.3947 103.196 90.0847 103.196 90.882V91.365ZM93.8122 94.01C95.2075 94.01 96.2425 93.7493 96.9172 93.228C97.6072 92.6913 97.9522 92.055 97.9522 91.319V91.066C97.9522 90.2533 97.6072 89.6247 96.9172 89.18C96.2272 88.72 95.1922 88.49 93.8122 88.49C92.4475 88.49 91.4125 88.7123 90.7072 89.157C90.0172 89.6017 89.6722 90.238 89.6722 91.066V91.319C89.6722 92.0857 90.0172 92.7297 90.7072 93.251C91.3972 93.757 92.4322 94.01 93.8122 94.01ZM108.676 88.03H103.501V84.626H118.98V88.03H113.805V97H108.676V88.03ZM120.559 84.626H125.688V92.423L133.462 84.626H138.706V97H133.577V89.203L125.803 97H120.559V84.626ZM145.467 88.03H140.292V84.626H155.771V88.03H150.596V97H145.467V88.03ZM162.548 90.813C162.548 91.1963 162.64 91.5797 162.824 91.963C163.008 92.3463 163.284 92.6913 163.652 92.998C164.035 93.3047 164.511 93.5577 165.078 93.757C165.661 93.941 166.343 94.033 167.125 94.033H167.24C168.068 94.033 168.75 93.941 169.287 93.757C169.839 93.5577 170.276 93.3047 170.598 92.998C170.92 92.676 171.142 92.3233 171.265 91.94C171.403 91.5567 171.472 91.181 171.472 90.813V90.721C171.472 90.3223 171.403 89.9313 171.265 89.548C171.142 89.1647 170.92 88.8273 170.598 88.536C170.276 88.2293 169.839 87.984 169.287 87.8C168.75 87.616 168.068 87.524 167.24 87.524H167.125C166.328 87.524 165.638 87.616 165.055 87.8C164.488 87.984 164.012 88.2293 163.629 88.536C163.261 88.8273 162.985 89.1647 162.801 89.548C162.632 89.9313 162.548 90.3223 162.548 90.721V90.813ZM162.548 84.626V86.397C162.686 86.2743 162.908 86.098 163.215 85.868C163.537 85.638 163.959 85.408 164.48 85.178C165.001 84.948 165.622 84.7487 166.343 84.58C167.064 84.4113 167.892 84.327 168.827 84.327H169.241C170.636 84.327 171.809 84.4957 172.76 84.833C173.726 85.155 174.5 85.5997 175.083 86.167C175.666 86.719 176.08 87.3783 176.325 88.145C176.586 88.8963 176.716 89.6937 176.716 90.537V90.974C176.716 91.7867 176.586 92.5763 176.325 93.343C176.064 94.0943 175.635 94.769 175.037 95.367C174.439 95.9497 173.649 96.4173 172.668 96.77C171.702 97.1227 170.506 97.299 169.08 97.299H168.712C167.792 97.299 166.972 97.2147 166.251 97.046C165.53 96.8773 164.909 96.678 164.388 96.448C163.882 96.218 163.476 95.9957 163.169 95.781C162.862 95.551 162.655 95.3747 162.548 95.252V101.324H157.419V84.626H162.548ZM178.104 84.626H183.233V92.423L191.007 84.626H196.251V97H191.122V89.203L183.348 97H178.104V84.626ZM203.472 90.813C203.472 91.1963 203.564 91.5797 203.748 91.963C203.932 92.3463 204.208 92.6913 204.576 92.998C204.959 93.3047 205.434 93.5577 206.002 93.757C206.584 93.941 207.267 94.033 208.049 94.033H208.164C208.992 94.033 209.674 93.941 210.211 93.757C210.763 93.5577 211.2 93.3047 211.522 92.998C211.844 92.676 212.066 92.3233 212.189 91.94C212.327 91.5567 212.396 91.181 212.396 90.813V90.721C212.396 90.3223 212.327 89.9313 212.189 89.548C212.066 89.1647 211.844 88.8273 211.522 88.536C211.2 88.2293 210.763 87.984 210.211 87.8C209.674 87.616 208.992 87.524 208.164 87.524H208.049C207.251 87.524 206.561 87.616 205.979 87.8C205.411 87.984 204.936 88.2293 204.553 88.536C204.185 88.8273 203.909 89.1647 203.725 89.548C203.556 89.9313 203.472 90.3223 203.472 90.721V90.813ZM203.472 84.626V86.397C203.61 86.2743 203.832 86.098 204.139 85.868C204.461 85.638 204.882 85.408 205.404 85.178C205.925 84.948 206.546 84.7487 207.267 84.58C207.987 84.4113 208.815 84.327 209.751 84.327H210.165C211.56 84.327 212.733 84.4957 213.684 84.833C214.65 85.155 215.424 85.5997 216.007 86.167C216.589 86.719 217.003 87.3783 217.249 88.145C217.509 88.8963 217.64 89.6937 217.64 90.537V90.974C217.64 91.7867 217.509 92.5763 217.249 93.343C216.988 94.0943 216.559 94.769 215.961 95.367C215.363 95.9497 214.573 96.4173 213.592 96.77C212.626 97.1227 211.43 97.299 210.004 97.299H209.636C208.716 97.299 207.895 97.2147 207.175 97.046C206.454 96.8773 205.833 96.678 205.312 96.448C204.806 96.218 204.399 95.9957 204.093 95.781C203.786 95.551 203.579 95.3747 203.472 95.252V101.324H198.343V84.626H203.472ZM220.011 97.644H222.909C223.155 97.644 223.316 97.6057 223.392 97.529C223.469 97.4677 223.507 97.3757 223.507 97.253C223.507 97.1303 223.454 96.9693 223.346 96.77C223.254 96.5707 223.116 96.2947 222.932 95.942L217.021 84.626H222.541L226.52 92.998L230.384 84.626H235.536L229.05 97.828C228.759 98.4107 228.46 98.9167 228.153 99.346C227.862 99.7907 227.532 100.159 227.164 100.45C226.812 100.741 226.413 100.956 225.968 101.094C225.539 101.247 225.048 101.324 224.496 101.324H220.011V97.644ZM244.254 87.156C242.966 87.156 242.008 87.34 241.379 87.708C240.75 88.076 240.336 88.5897 240.137 89.249H248.417C248.248 88.5897 247.842 88.076 247.198 87.708C246.554 87.34 245.58 87.156 244.277 87.156H244.254ZM253.523 92.653C253.523 93.067 253.423 93.55 253.224 94.102C253.04 94.6387 252.649 95.1523 252.051 95.643C251.453 96.1183 250.594 96.5247 249.475 96.862C248.356 97.184 246.876 97.345 245.036 97.345H243.725C242.069 97.345 240.681 97.1687 239.562 96.816C238.458 96.4633 237.569 95.9957 236.894 95.413C236.219 94.815 235.736 94.1403 235.445 93.389C235.154 92.6223 235.008 91.8327 235.008 91.02V90.514C235.008 89.7167 235.138 88.95 235.399 88.214C235.675 87.4627 236.135 86.7957 236.779 86.213C237.438 85.6303 238.32 85.1627 239.424 84.81C240.528 84.4573 241.916 84.281 243.587 84.281H244.99C246.799 84.281 248.264 84.488 249.383 84.902C250.518 85.316 251.392 85.845 252.005 86.489C252.634 87.133 253.055 87.8537 253.27 88.651C253.485 89.433 253.592 90.1997 253.592 90.951V91.802H240.045C240.198 92.5227 240.612 93.1053 241.287 93.55C241.962 93.9947 243.004 94.217 244.415 94.217H244.438C245.281 94.217 245.964 94.148 246.485 94.01C247.006 93.872 247.413 93.7187 247.704 93.55C247.995 93.366 248.187 93.1897 248.279 93.021C248.386 92.837 248.448 92.7067 248.463 92.63H253.523V92.653ZM259.727 89.916V97H254.943V84.626H261.153L265.776 91.779L270.491 84.626H276.494V97H271.365V89.985L266.811 97H264.281L259.727 89.916ZM21.012 122V109.626H30.166C31.4847 109.626 32.5963 109.687 33.501 109.81C34.4057 109.933 35.134 110.117 35.686 110.362C36.238 110.607 36.629 110.914 36.859 111.282C37.1043 111.635 37.227 112.041 37.227 112.501V112.731C37.227 113.406 36.974 113.958 36.468 114.387C35.9773 114.816 35.3027 115.131 34.444 115.33C34.8733 115.422 35.2873 115.552 35.686 115.721C36.1 115.874 36.4603 116.074 36.767 116.319C37.089 116.564 37.342 116.856 37.526 117.193C37.71 117.515 37.802 117.875 37.802 118.274V118.504C37.802 118.995 37.687 119.455 37.457 119.884C37.2423 120.298 36.882 120.666 36.376 120.988C35.8853 121.295 35.2337 121.54 34.421 121.724C33.6237 121.908 32.6423 122 31.477 122H21.012ZM29.913 114.203C30.7103 114.203 31.2547 114.126 31.546 113.973C31.8527 113.82 32.006 113.59 32.006 113.283V113.214C32.006 112.923 31.8527 112.708 31.546 112.57C31.2547 112.417 30.7027 112.34 29.89 112.34H26.141V114.203H29.913ZM30.373 119.217C31.845 119.217 32.581 118.818 32.581 118.021V117.906C32.581 117.17 31.8373 116.802 30.35 116.802H26.141V119.217H30.373ZM39.385 109.626H44.514V117.423L52.288 109.626H57.532V122H52.403V114.203L44.629 122H39.385V109.626ZM58.658 118.596H60.521C60.6896 118.197 60.8276 117.76 60.935 117.285C61.0576 116.81 61.1573 116.227 61.234 115.537C61.3106 114.847 61.372 114.027 61.418 113.076C61.464 112.125 61.5023 110.975 61.533 109.626H77.058V118.596H79.588V124.76H74.689V122H63.534V124.76H58.658V118.596ZM71.929 118.596V112.915H66.202C66.156 114.218 66.0716 115.315 65.949 116.204C65.8416 117.093 65.6576 117.891 65.397 118.596H71.929ZM89.2286 112.156C87.9406 112.156 86.9822 112.34 86.3536 112.708C85.7249 113.076 85.3109 113.59 85.1116 114.249H93.3916C93.2229 113.59 92.8166 113.076 92.1726 112.708C91.5286 112.34 90.5549 112.156 89.2516 112.156H89.2286ZM98.4976 117.653C98.4976 118.067 98.3979 118.55 98.1986 119.102C98.0146 119.639 97.6236 120.152 97.0256 120.643C96.4276 121.118 95.5689 121.525 94.4496 121.862C93.3302 122.184 91.8506 122.345 90.0106 122.345H88.6996C87.0436 122.345 85.6559 122.169 84.5366 121.816C83.4326 121.463 82.5432 120.996 81.8686 120.413C81.1939 119.815 80.7109 119.14 80.4196 118.389C80.1282 117.622 79.9826 116.833 79.9826 116.02V115.514C79.9826 114.717 80.1129 113.95 80.3736 113.214C80.6496 112.463 81.1096 111.796 81.7536 111.213C82.4129 110.63 83.2946 110.163 84.3986 109.81C85.5026 109.457 86.8902 109.281 88.5616 109.281H89.9646C91.7739 109.281 93.2382 109.488 94.3576 109.902C95.4922 110.316 96.3662 110.845 96.9796 111.489C97.6082 112.133 98.0299 112.854 98.2446 113.651C98.4592 114.433 98.5666 115.2 98.5666 115.951V116.802H85.0196C85.1729 117.523 85.5869 118.105 86.2616 118.55C86.9362 118.995 87.9789 119.217 89.3896 119.217H89.4126C90.2559 119.217 90.9382 119.148 91.4596 119.01C91.9809 118.872 92.3872 118.719 92.6786 118.55C92.9699 118.366 93.1616 118.19 93.2536 118.021C93.3609 117.837 93.4222 117.707 93.4376 117.63H98.4976V117.653ZM108.312 122.345C106.518 122.345 105.046 122.146 103.896 121.747C102.746 121.348 101.834 120.842 101.159 120.229C100.5 119.6 100.04 118.91 99.7793 118.159C99.5339 117.408 99.4113 116.672 99.4113 115.951V115.537C99.4113 114.832 99.5339 114.111 99.7793 113.375C100.04 112.624 100.5 111.949 101.159 111.351C101.819 110.738 102.723 110.239 103.873 109.856C105.023 109.473 106.495 109.281 108.289 109.281H109.922C111.808 109.281 113.326 109.48 114.476 109.879C115.642 110.262 116.539 110.761 117.167 111.374C117.811 111.972 118.241 112.639 118.455 113.375C118.67 114.111 118.777 114.832 118.777 115.537V115.951C118.777 116.672 118.67 117.408 118.455 118.159C118.256 118.91 117.842 119.6 117.213 120.229C116.585 120.842 115.688 121.348 114.522 121.747C113.372 122.146 111.839 122.345 109.922 122.345H108.312ZM109.117 119.01C109.991 119.01 110.712 118.91 111.279 118.711C111.862 118.512 112.322 118.259 112.659 117.952C112.997 117.645 113.234 117.308 113.372 116.94C113.51 116.557 113.579 116.181 113.579 115.813V115.698C113.579 115.315 113.51 114.939 113.372 114.571C113.234 114.188 112.997 113.85 112.659 113.559C112.322 113.268 111.862 113.03 111.279 112.846C110.712 112.662 109.999 112.57 109.14 112.57H109.117C108.243 112.57 107.515 112.662 106.932 112.846C106.365 113.015 105.913 113.252 105.575 113.559C105.238 113.85 105 114.188 104.862 114.571C104.724 114.939 104.655 115.315 104.655 115.698V115.813C104.655 116.181 104.724 116.557 104.862 116.94C105 117.308 105.238 117.645 105.575 117.952C105.913 118.259 106.365 118.512 106.932 118.711C107.515 118.91 108.243 119.01 109.117 119.01ZM125.284 116.319V122H120.155V109.626H125.284V114.571L130.298 109.626H135.979L130.137 115.215L136.692 122H130.666L125.284 116.319ZM144.272 122.345C142.478 122.345 141.006 122.146 139.856 121.747C138.706 121.348 137.794 120.842 137.119 120.229C136.46 119.6 136 118.91 135.739 118.159C135.494 117.408 135.371 116.672 135.371 115.951V115.537C135.371 114.832 135.494 114.111 135.739 113.375C136 112.624 136.46 111.949 137.119 111.351C137.779 110.738 138.683 110.239 139.833 109.856C140.983 109.473 142.455 109.281 144.249 109.281H145.882C147.768 109.281 149.286 109.48 150.436 109.879C151.602 110.262 152.499 110.761 153.127 111.374C153.771 111.972 154.201 112.639 154.415 113.375C154.63 114.111 154.737 114.832 154.737 115.537V115.951C154.737 116.672 154.63 117.408 154.415 118.159C154.216 118.91 153.802 119.6 153.173 120.229C152.545 120.842 151.648 121.348 150.482 121.747C149.332 122.146 147.799 122.345 145.882 122.345H144.272ZM145.077 119.01C145.951 119.01 146.672 118.91 147.239 118.711C147.822 118.512 148.282 118.259 148.619 117.952C148.957 117.645 149.194 117.308 149.332 116.94C149.47 116.557 149.539 116.181 149.539 115.813V115.698C149.539 115.315 149.47 114.939 149.332 114.571C149.194 114.188 148.957 113.85 148.619 113.559C148.282 113.268 147.822 113.03 147.239 112.846C146.672 112.662 145.959 112.57 145.1 112.57H145.077C144.203 112.57 143.475 112.662 142.892 112.846C142.325 113.015 141.873 113.252 141.535 113.559C141.198 113.85 140.96 114.188 140.822 114.571C140.684 114.939 140.615 115.315 140.615 115.698V115.813C140.615 116.181 140.684 116.557 140.822 116.94C140.96 117.308 141.198 117.645 141.535 117.952C141.873 118.259 142.325 118.512 142.892 118.711C143.475 118.91 144.203 119.01 145.077 119.01ZM156.115 122V109.626H161.244V114.134H168.19V109.626H173.319V122H168.19V117.538H161.244V122H156.115ZM180.079 113.03H174.904V109.626H190.383V113.03H185.208V122H180.079V113.03ZM200.478 112.156C199.19 112.156 198.231 112.34 197.603 112.708C196.974 113.076 196.56 113.59 196.361 114.249H204.641C204.472 113.59 204.066 113.076 203.422 112.708C202.778 112.34 201.804 112.156 200.501 112.156H200.478ZM209.747 117.653C209.747 118.067 209.647 118.55 209.448 119.102C209.264 119.639 208.873 120.152 208.275 120.643C207.677 121.118 206.818 121.525 205.699 121.862C204.579 122.184 203.1 122.345 201.26 122.345H199.949C198.293 122.345 196.905 122.169 195.786 121.816C194.682 121.463 193.792 120.996 193.118 120.413C192.443 119.815 191.96 119.14 191.669 118.389C191.377 117.622 191.232 116.833 191.232 116.02V115.514C191.232 114.717 191.362 113.95 191.623 113.214C191.899 112.463 192.359 111.796 193.003 111.213C193.662 110.63 194.544 110.163 195.648 109.81C196.752 109.457 198.139 109.281 199.811 109.281H201.214C203.023 109.281 204.487 109.488 205.607 109.902C206.741 110.316 207.615 110.845 208.229 111.489C208.857 112.133 209.279 112.854 209.494 113.651C209.708 114.433 209.816 115.2 209.816 115.951V116.802H196.269C196.422 117.523 196.836 118.105 197.511 118.55C198.185 118.995 199.228 119.217 200.639 119.217H200.662C201.505 119.217 202.187 119.148 202.709 119.01C203.23 118.872 203.636 118.719 203.928 118.55C204.219 118.366 204.411 118.19 204.503 118.021C204.61 117.837 204.671 117.707 204.687 117.63H209.747V117.653ZM211.166 122V109.626H216.295V114.134H223.241V109.626H228.37V122H223.241V117.538H216.295V122H211.166ZM235.131 113.03H229.956V109.626H245.435V113.03H240.26V122H235.131V113.03Z" fill="white"/>
<path d="M252.35 122H246.807V117.975H252.35V122Z" fill="#FF4848"/>
</svg>
