<svg width="220" height="130" viewBox="0 0 220 130" fill="none" xmlns="http://www.w3.org/2000/svg">
<line x1="0.5" y1="2.18557e-08" x2="0.499994" y2="130" stroke="white"/>
<line x1="130" y1="0.5" x2="-4.37114e-08" y2="0.499989" stroke="white"/>
<path d="M45.4298 48.639H38.4435C35.6401 48.639 30.3284 46.9422 30.3284 40.5239C30.3284 34.1056 35.6401 32.4088 38.4435 32.4088H45.4298L44.5667 35.3597H38.7902C38.2664 35.3671 33.6261 35.5515 33.6261 40.5239C33.6261 45.5405 38.259 45.688 38.7902 45.688H44.5667L45.4298 48.639Z" fill="white"/>
<path d="M190.277 48.639H183.29C180.487 48.639 175.175 46.9422 175.175 40.5239C175.175 34.1056 180.487 32.4088 183.29 32.4088H190.277L189.414 35.3597H183.637C183.113 35.3671 178.473 35.5515 178.473 40.5239C178.473 45.5405 183.106 45.688 183.637 45.688H189.414L190.277 48.639Z" fill="white"/>
<path d="M115.78 32.4088H120.207C122.848 32.4088 125.002 34.563 125.002 37.2041C125.002 39.8452 122.501 41.9994 119.86 41.9994H111.118C111.929 45.57 115.655 45.688 116.127 45.688H123.017L123.88 48.639H115.78C112.977 48.639 107.665 46.9422 107.665 40.5239C107.665 34.1056 112.969 32.4088 115.78 32.4088ZM119.86 39.0484C120.878 39.0484 121.704 38.2221 121.704 37.2041C121.704 36.186 120.878 35.3597 119.86 35.3597H116.127C115.662 35.3671 111.937 35.5147 111.118 39.0484H119.86Z" fill="white"/>
<path d="M57.6169 32.4088H55.6029C52.7995 32.4088 47.4878 34.1056 47.4878 40.5239C47.4878 46.9422 52.7995 48.639 55.6029 48.639H57.6169C60.4203 48.639 65.732 46.9422 65.732 40.5239C65.732 34.1056 60.4203 32.4088 57.6169 32.4088ZM57.2628 45.688H55.9496C55.4258 45.688 50.7855 45.5479 50.7855 40.5239C50.7855 35.5589 55.4258 35.3671 55.9496 35.3597H57.2702C57.794 35.3597 62.4343 35.5073 62.4343 40.5239C62.4343 45.4888 57.8013 45.6807 57.2628 45.688Z" fill="white"/>
<path d="M86.4038 48.639H83.1062V40.5239C83.1062 35.5073 78.4732 35.3597 77.942 35.3597H73.1246V48.639H69.8269V32.4088H78.2887C81.0921 32.4088 86.4038 34.1056 86.4038 40.5239V48.639Z" fill="white"/>
<path d="M145.843 48.639H142.545V40.5239C142.545 35.5073 137.912 35.3597 137.381 35.3597H132.564V48.639H129.266V32.4088H137.728C140.531 32.4088 145.843 34.1056 145.843 40.5239V48.639Z" fill="white"/>
<path d="M158.406 45.688C157.875 45.688 153.242 45.5405 153.242 40.5239V39.7861H161.372L162.235 36.8352H153.25V32.4088H149.952V40.5239C149.952 46.9422 155.264 48.639 158.067 48.639H165.053L164.19 45.688H158.406Z" fill="white"/>
<path d="M98.9671 45.688C98.436 45.688 93.803 45.5405 93.803 40.5239V39.7861H101.933L102.796 36.8352H93.8104V32.4088H90.5127V40.5239C90.5127 46.9422 95.8244 48.639 98.6278 48.639H105.614L104.751 45.688H98.9671Z" fill="white"/>
<path d="M171.074 32.4088H167.776V48.639H171.074V32.4088Z" fill="white"/>
<path d="M165.851 22.8624C165.836 22.9288 165.828 22.9878 165.814 23.0542C165.777 23.2608 165.747 23.4674 165.747 23.6813C165.747 23.9247 165.769 24.1608 165.821 24.3822C165.865 24.6035 165.932 24.8248 166.013 25.0314C166.551 26.3888 167.872 27.3553 169.429 27.3553C171.221 27.3553 172.704 26.0716 173.036 24.3822C173.08 24.1535 173.103 23.9247 173.11 23.6813V23.6739C173.11 23.46 173.088 23.2534 173.044 23.0469C173.029 22.9805 173.021 22.9214 173.007 22.855C172.97 22.7001 172.925 22.5526 172.866 22.4124C172.822 22.3018 172.778 22.1911 172.726 22.0804C172.129 20.8484 170.882 20 169.429 20C167.975 20 166.721 20.8558 166.131 22.0804C166.079 22.1911 166.035 22.2944 165.991 22.4124C165.932 22.56 165.887 22.7075 165.851 22.8624Z" fill="#FF4848"/>
<path d="M201.557 22.0803H175.854C175.98 22.5893 176.053 23.1279 176.053 23.6738C176.053 24.1386 176.002 24.596 175.913 25.0312H201.549C209.06 25.0312 217.042 30.461 217.042 40.5237C217.042 50.5864 209.06 56.0162 201.549 56.0162H38.436C30.9259 56.0162 22.9436 50.5864 22.9436 40.5237C22.9436 30.461 30.9259 25.0312 38.436 25.0312H162.936C162.848 24.596 162.796 24.1386 162.796 23.6738C162.796 23.1205 162.87 22.5893 162.995 22.0803H38.4434C29.502 22.0803 20 28.5429 20 40.5237C20 52.5045 29.502 58.9671 38.4434 58.9671H201.557C210.498 58.9671 220 52.5045 220 40.5237C220 28.5429 210.498 22.0803 201.557 22.0803Z" fill="#FF4848"/>
<path d="M201.557 32.4088H194.571L195.434 35.3597H201.211C201.683 35.3597 205.408 35.4778 206.22 39.0484H197.478C194.837 39.0484 192.336 41.2026 192.336 43.8437C192.336 46.4848 194.49 48.639 197.131 48.639H201.557C202.841 48.639 204.641 48.2775 206.22 47.2815V47.2889L206.869 48.6242H209.672V40.5239C209.672 34.1056 204.361 32.4088 201.557 32.4088ZM201.211 45.688H197.478C196.46 45.688 195.633 44.8618 195.633 43.8437C195.633 42.8256 196.46 41.9994 197.478 41.9994H206.213C205.401 45.5331 201.675 45.6807 201.211 45.688Z" fill="white"/>
</svg>
