<svg width="252" height="130" viewBox="0 0 252 130" fill="none" xmlns="http://www.w3.org/2000/svg">
<line y1="-0.5" x2="130" y2="-0.5" transform="matrix(-1 0 0 1 252 130)" stroke="white"/>
<line y1="-0.5" x2="130" y2="-0.5" transform="matrix(4.37114e-08 1 1 -4.37114e-08 252 0)" stroke="white"/>
<path d="M28.5457 96.666C28.5457 97.2207 28.485 97.8533 28.3637 98.564C28.2597 99.2573 28.043 99.968 27.7137 100.696C27.3844 101.407 26.9164 102.1 26.3097 102.776C25.7204 103.452 24.9404 104.059 23.9697 104.596C23.0164 105.116 21.8377 105.541 20.4337 105.87C19.047 106.182 17.4004 106.338 15.4937 106.338H14.3497C12.443 106.338 10.7964 106.182 9.4097 105.87C8.02304 105.541 6.84437 105.116 5.8737 104.596C4.92037 104.059 4.14037 103.452 3.5337 102.776C2.92704 102.1 2.45904 101.407 2.1297 100.696C1.80037 99.968 1.57504 99.2573 1.4537 98.564C1.3497 97.8707 1.2977 97.238 1.2977 96.666V95.886C1.2977 95.314 1.3497 94.6813 1.4537 93.988C1.57504 93.2947 1.80037 92.5927 2.1297 91.882C2.45904 91.1713 2.92704 90.4867 3.5337 89.828C4.14037 89.152 4.92037 88.554 5.8737 88.034C6.84437 87.514 8.02304 87.098 9.4097 86.786C10.7964 86.474 12.443 86.318 14.3497 86.318H15.4937C17.4004 86.318 19.047 86.474 20.4337 86.786C21.8204 87.098 22.999 87.514 23.9697 88.034C24.9404 88.554 25.7204 89.152 26.3097 89.828C26.9164 90.4867 27.3844 91.1713 27.7137 91.882C28.043 92.5927 28.2597 93.2947 28.3637 93.988C28.485 94.6813 28.5457 95.314 28.5457 95.886V96.666ZM22.2017 96.068C22.2017 95.5133 22.0977 94.9413 21.8897 94.352C21.699 93.7627 21.3264 93.2253 20.7717 92.74C20.2344 92.2373 19.489 91.83 18.5357 91.518C17.5997 91.1887 16.395 91.024 14.9217 91.024C13.4137 91.024 12.183 91.1887 11.2297 91.518C10.2937 91.83 9.55704 92.2373 9.0197 92.74C8.48237 93.2253 8.11837 93.7627 7.9277 94.352C7.73704 94.9413 7.6417 95.5133 7.6417 96.068V96.38C7.6417 96.9347 7.7457 97.5153 7.9537 98.122C8.1617 98.7287 8.53437 99.292 9.0717 99.812C9.60904 100.332 10.3457 100.765 11.2817 101.112C12.235 101.441 13.4484 101.606 14.9217 101.606C16.395 101.606 17.5997 101.441 18.5357 101.112C19.489 100.783 20.2344 100.367 20.7717 99.864C21.309 99.344 21.6817 98.7807 21.8897 98.174C22.0977 97.5673 22.2017 96.9867 22.2017 96.432V96.068ZM57.1863 96.666C57.1863 97.2207 57.1257 97.8533 57.0043 98.564C56.9003 99.2573 56.6837 99.968 56.3543 100.696C56.025 101.407 55.557 102.1 54.9503 102.776C54.361 103.452 53.581 104.059 52.6103 104.596C51.657 105.116 50.4783 105.541 49.0743 105.87C47.6877 106.182 46.041 106.338 44.1343 106.338H42.9903C41.0837 106.338 39.437 106.182 38.0503 105.87C36.6637 105.541 35.485 105.116 34.5143 104.596C33.561 104.059 32.781 103.452 32.1743 102.776C31.5677 102.1 31.0997 101.407 30.7703 100.696C30.441 99.968 30.2157 99.2573 30.0943 98.564C29.9903 97.8707 29.9383 97.238 29.9383 96.666V95.886C29.9383 95.314 29.9903 94.6813 30.0943 93.988C30.2157 93.2947 30.441 92.5927 30.7703 91.882C31.0997 91.1713 31.5677 90.4867 32.1743 89.828C32.781 89.152 33.561 88.554 34.5143 88.034C35.485 87.514 36.6637 87.098 38.0503 86.786C39.437 86.474 41.0837 86.318 42.9903 86.318H44.1343C46.041 86.318 47.6877 86.474 49.0743 86.786C50.461 87.098 51.6397 87.514 52.6103 88.034C53.581 88.554 54.361 89.152 54.9503 89.828C55.557 90.4867 56.025 91.1713 56.3543 91.882C56.6837 92.5927 56.9003 93.2947 57.0043 93.988C57.1257 94.6813 57.1863 95.314 57.1863 95.886V96.666ZM50.8423 96.068C50.8423 95.5133 50.7383 94.9413 50.5303 94.352C50.3397 93.7627 49.967 93.2253 49.4123 92.74C48.875 92.2373 48.1297 91.83 47.1763 91.518C46.2403 91.1887 45.0357 91.024 43.5623 91.024C42.0543 91.024 40.8237 91.1887 39.8703 91.518C38.9343 91.83 38.1977 92.2373 37.6603 92.74C37.123 93.2253 36.759 93.7627 36.5683 94.352C36.3777 94.9413 36.2823 95.5133 36.2823 96.068V96.38C36.2823 96.9347 36.3863 97.5153 36.5943 98.122C36.8023 98.7287 37.175 99.292 37.7123 99.812C38.2497 100.332 38.9863 100.765 39.9223 101.112C40.8757 101.441 42.089 101.606 43.5623 101.606C45.0357 101.606 46.2403 101.441 47.1763 101.112C48.1297 100.783 48.875 100.367 49.4123 99.864C49.9497 99.344 50.3223 98.7807 50.5303 98.174C50.7383 97.5673 50.8423 96.9867 50.8423 96.432V96.068ZM65.079 97.966H58.813V93.416H65.079V97.966ZM65.079 106H58.813V101.45H65.079V106ZM93.9773 96.666C93.9773 97.2207 93.9167 97.8533 93.7953 98.564C93.6913 99.2573 93.4747 99.968 93.1453 100.696C92.816 101.407 92.348 102.1 91.7413 102.776C91.152 103.452 90.372 104.059 89.4013 104.596C88.448 105.116 87.2693 105.541 85.8653 105.87C84.4787 106.182 82.832 106.338 80.9253 106.338H79.7813C77.8747 106.338 76.228 106.182 74.8413 105.87C73.4547 105.541 72.276 105.116 71.3053 104.596C70.352 104.059 69.572 103.452 68.9653 102.776C68.3587 102.1 67.8907 101.407 67.5613 100.696C67.232 99.968 67.0067 99.2573 66.8853 98.564C66.7813 97.8707 66.7293 97.238 66.7293 96.666V95.886C66.7293 95.314 66.7813 94.6813 66.8853 93.988C67.0067 93.2947 67.232 92.5927 67.5613 91.882C67.8907 91.1713 68.3587 90.4867 68.9653 89.828C69.572 89.152 70.352 88.554 71.3053 88.034C72.276 87.514 73.4547 87.098 74.8413 86.786C76.228 86.474 77.8747 86.318 79.7813 86.318H80.9253C82.832 86.318 84.4787 86.474 85.8653 86.786C87.252 87.098 88.4307 87.514 89.4013 88.034C90.372 88.554 91.152 89.152 91.7413 89.828C92.348 90.4867 92.816 91.1713 93.1453 91.882C93.4747 92.5927 93.6913 93.2947 93.7953 93.988C93.9167 94.6813 93.9773 95.314 93.9773 95.886V96.666ZM87.6333 96.068C87.6333 95.5133 87.5293 94.9413 87.3213 94.352C87.1307 93.7627 86.758 93.2253 86.2033 92.74C85.666 92.2373 84.9207 91.83 83.9673 91.518C83.0313 91.1887 81.8267 91.024 80.3533 91.024C78.8453 91.024 77.6147 91.1887 76.6613 91.518C75.7253 91.83 74.9887 92.2373 74.4513 92.74C73.914 93.2253 73.55 93.7627 73.3593 94.352C73.1687 94.9413 73.0733 95.5133 73.0733 96.068V96.38C73.0733 96.9347 73.1773 97.5153 73.3853 98.122C73.5933 98.7287 73.966 99.292 74.5033 99.812C75.0407 100.332 75.7773 100.765 76.7133 101.112C77.6667 101.441 78.88 101.606 80.3533 101.606C81.8267 101.606 83.0313 101.441 83.9673 101.112C84.9207 100.783 85.666 100.367 86.2033 99.864C86.7407 99.344 87.1133 98.7807 87.3213 98.174C87.5293 97.5673 87.6333 96.9867 87.6333 96.432V96.068ZM122.618 96.666C122.618 97.2207 122.557 97.8533 122.436 98.564C122.332 99.2573 122.115 99.968 121.786 100.696C121.457 101.407 120.989 102.1 120.382 102.776C119.793 103.452 119.013 104.059 118.042 104.596C117.089 105.116 115.91 105.541 114.506 105.87C113.119 106.182 111.473 106.338 109.566 106.338H108.422C106.515 106.338 104.869 106.182 103.482 105.87C102.095 105.541 100.917 105.116 99.946 104.596C98.9926 104.059 98.2126 103.452 97.606 102.776C96.9993 102.1 96.5313 101.407 96.202 100.696C95.8726 99.968 95.6473 99.2573 95.526 98.564C95.422 97.8707 95.37 97.238 95.37 96.666V95.886C95.37 95.314 95.422 94.6813 95.526 93.988C95.6473 93.2947 95.8726 92.5927 96.202 91.882C96.5313 91.1713 96.9993 90.4867 97.606 89.828C98.2126 89.152 98.9926 88.554 99.946 88.034C100.917 87.514 102.095 87.098 103.482 86.786C104.869 86.474 106.515 86.318 108.422 86.318H109.566C111.473 86.318 113.119 86.474 114.506 86.786C115.893 87.098 117.071 87.514 118.042 88.034C119.013 88.554 119.793 89.152 120.382 89.828C120.989 90.4867 121.457 91.1713 121.786 91.882C122.115 92.5927 122.332 93.2947 122.436 93.988C122.557 94.6813 122.618 95.314 122.618 95.886V96.666ZM116.274 96.068C116.274 95.5133 116.17 94.9413 115.962 94.352C115.771 93.7627 115.399 93.2253 114.844 92.74C114.307 92.2373 113.561 91.83 112.608 91.518C111.672 91.1887 110.467 91.024 108.994 91.024C107.486 91.024 106.255 91.1887 105.302 91.518C104.366 91.83 103.629 92.2373 103.092 92.74C102.555 93.2253 102.191 93.7627 102 94.352C101.809 94.9413 101.714 95.5133 101.714 96.068V96.38C101.714 96.9347 101.818 97.5153 102.026 98.122C102.234 98.7287 102.607 99.292 103.144 99.812C103.681 100.332 104.418 100.765 105.354 101.112C106.307 101.441 107.521 101.606 108.994 101.606C110.467 101.606 111.672 101.441 112.608 101.112C113.561 100.783 114.307 100.367 114.844 99.864C115.381 99.344 115.754 98.7807 115.962 98.174C116.17 97.5673 116.274 96.9867 116.274 96.432V96.068ZM130.511 97.966H124.245V93.416H130.511V97.966ZM130.511 106H124.245V101.45H130.511V106ZM159.409 96.666C159.409 97.2207 159.348 97.8533 159.227 98.564C159.123 99.2573 158.906 99.968 158.577 100.696C158.248 101.407 157.78 102.1 157.173 102.776C156.584 103.452 155.804 104.059 154.833 104.596C153.88 105.116 152.701 105.541 151.297 105.87C149.91 106.182 148.264 106.338 146.357 106.338H145.213C143.306 106.338 141.66 106.182 140.273 105.87C138.886 105.541 137.708 105.116 136.737 104.596C135.784 104.059 135.004 103.452 134.397 102.776C133.79 102.1 133.322 101.407 132.993 100.696C132.664 99.968 132.438 99.2573 132.317 98.564C132.213 97.8707 132.161 97.238 132.161 96.666V95.886C132.161 95.314 132.213 94.6813 132.317 93.988C132.438 93.2947 132.664 92.5927 132.993 91.882C133.322 91.1713 133.79 90.4867 134.397 89.828C135.004 89.152 135.784 88.554 136.737 88.034C137.708 87.514 138.886 87.098 140.273 86.786C141.66 86.474 143.306 86.318 145.213 86.318H146.357C148.264 86.318 149.91 86.474 151.297 86.786C152.684 87.098 153.862 87.514 154.833 88.034C155.804 88.554 156.584 89.152 157.173 89.828C157.78 90.4867 158.248 91.1713 158.577 91.882C158.906 92.5927 159.123 93.2947 159.227 93.988C159.348 94.6813 159.409 95.314 159.409 95.886V96.666ZM153.065 96.068C153.065 95.5133 152.961 94.9413 152.753 94.352C152.562 93.7627 152.19 93.2253 151.635 92.74C151.098 92.2373 150.352 91.83 149.399 91.518C148.463 91.1887 147.258 91.024 145.785 91.024C144.277 91.024 143.046 91.1887 142.093 91.518C141.157 91.83 140.42 92.2373 139.883 92.74C139.346 93.2253 138.982 93.7627 138.791 94.352C138.6 94.9413 138.505 95.5133 138.505 96.068V96.38C138.505 96.9347 138.609 97.5153 138.817 98.122C139.025 98.7287 139.398 99.292 139.935 99.812C140.472 100.332 141.209 100.765 142.145 101.112C143.098 101.441 144.312 101.606 145.785 101.606C147.258 101.606 148.463 101.441 149.399 101.112C150.352 100.783 151.098 100.367 151.635 99.864C152.172 99.344 152.545 98.7807 152.753 98.174C152.961 97.5673 153.065 96.9867 153.065 96.432V96.068ZM160.62 94.014V90.374C161.452 90.322 162.18 90.192 162.804 89.984C163.428 89.776 163.965 89.516 164.416 89.204C164.884 88.8747 165.274 88.502 165.586 88.086C165.898 87.6527 166.166 87.176 166.392 86.656H171.124V106H165.118V94.014H160.62ZM179.921 97.966H173.655V93.416H179.921V97.966ZM179.921 106H173.655V101.45H179.921V106ZM194.831 86.578H201.357V97.498H205.283V101.996H201.357V106H195.377V101.996H181.207V98.33L194.831 86.578ZM195.377 91.414L188.279 97.498H195.377V91.414ZM217.532 106.338C215.92 106.338 214.524 106.225 213.346 106C212.167 105.792 211.17 105.515 210.356 105.168C209.541 104.804 208.882 104.397 208.38 103.946C207.894 103.495 207.513 103.045 207.236 102.594C206.976 102.126 206.794 101.675 206.69 101.242C206.603 100.809 206.56 100.436 206.56 100.124V99.942H212.956C212.973 100.011 213.034 100.15 213.138 100.358C213.242 100.566 213.467 100.783 213.814 101.008C214.16 101.233 214.672 101.433 215.348 101.606C216.024 101.779 216.951 101.866 218.13 101.866C219.239 101.866 220.123 101.797 220.782 101.658C221.44 101.502 221.943 101.311 222.29 101.086C222.636 100.861 222.862 100.609 222.966 100.332C223.07 100.037 223.122 99.76 223.122 99.5V99.344C223.122 99.084 223.07 98.8153 222.966 98.538C222.862 98.2433 222.636 97.9833 222.29 97.758C221.943 97.5327 221.44 97.3507 220.782 97.212C220.123 97.056 219.239 96.978 218.13 96.978C216.951 96.978 216.024 97.056 215.348 97.212C214.672 97.3507 214.152 97.5153 213.788 97.706C213.424 97.8793 213.181 98.0527 213.06 98.226C212.956 98.382 212.895 98.486 212.878 98.538H206.976V86.656H228.114V91.154H212.93V94.612C213.016 94.5427 213.198 94.4127 213.476 94.222C213.77 94.014 214.186 93.806 214.724 93.598C215.278 93.39 215.972 93.208 216.804 93.052C217.636 92.896 218.641 92.818 219.82 92.818H220.054C221.978 92.818 223.546 92.9913 224.76 93.338C225.973 93.6847 226.926 94.1527 227.62 94.742C228.33 95.3313 228.816 96.0247 229.076 96.822C229.336 97.602 229.466 98.434 229.466 99.318V99.474C229.466 100.254 229.318 101.051 229.024 101.866C228.746 102.681 228.209 103.426 227.412 104.102C226.632 104.761 225.54 105.298 224.136 105.714C222.749 106.13 220.955 106.338 218.754 106.338H217.532Z" fill="white"/>
</svg>
